<?xml version="1.0" standalone="no"?>
<!DOCTYPE svg PUBLIC "-//W3C//DTD SVG 20010904//EN"
 "http://www.w3.org/TR/2001/REC-SVG-20010904/DTD/svg10.dtd">
<svg version="1.0" xmlns="http://www.w3.org/2000/svg"
 width="64.000000pt" height="64.000000pt" viewBox="0 0 64.000000 64.000000"
 preserveAspectRatio="xMidYMid meet">

<g transform="translate(0.000000,64.000000) scale(0.100000,-0.100000)"
fill="#ff2400" stroke="none">
<path d="M102 537 c-18 -18 -32 -37 -32 -41 0 -5 37 -46 82 -92 l82 -84 -82
-84 c-45 -46 -82 -88 -82 -93 0 -11 63 -73 74 -73 5 0 46 37 92 82 l84 82 84
-82 c46 -45 88 -82 93 -82 11 0 73 63 73 74 0 5 -37 46 -82 92 l-82 84 82 84
c45 46 82 88 82 93 0 11 -63 73 -74 73 -5 0 -46 -37 -92 -82 l-84 -82 -84 82
c-46 45 -88 82 -93 82 -5 0 -23 -15 -41 -33z m136 -70 l83 -83 81 83 c45 46
86 83 92 83 13 0 56 -41 56 -54 0 -6 -37 -48 -82 -93 l-82 -82 24 -28 c14 -15
50 -54 80 -86 30 -32 56 -62 58 -66 1 -4 -9 -18 -23 -31 l-26 -24 -89 89 -90
90 -90 -90 -90 -90 -27 28 -28 27 90 90 90 91 -87 81 c-49 44 -88 85 -88 91 0
14 41 57 54 57 7 0 49 -37 94 -83z"/>
</g>
</svg>
